/* XPM */
static char *_e2c9a7ef3074a97830fd4ab5ce351aaNrm4Jh5hU4LV7wUa[] = {
/* columns rows colors chars-per-pixel */
"64 64 6 1 ",
"  c black",
". c #990030",
"X c #ED1C24",
"o c #FFA3B1",
"O c gray80",
"+ c white",
/* pixels */
"..XXXXXXXXXXXXXXXXXXXXXXXXXXXXX   XXXXXXXXXXXXXXXXXXXXXXXXXXXX..",
"..XXXXXXXXXXXXXXXXXXXXXXXXXXXXX   XXXXXXXXXXXXXXXXXXXXXXXXXXXX..",
"..XXXXXXXXXXXXXXXXXXXXXXXXXXXXX   XXXXXXXXXXXXXXXXXXXXXXXXXXXX..",
"..XXXXXXXXXXXXXXXXXXXXXXXXXXXXX   XXXXXXXXXXXXXXXXXXXXXXXXXXXX..",
"..XXXXXX++++++++OOOOOOOOXXXXXXX   XXXXXX++++++++OOOOOOOOXXXXXX..",
"..XXXXXX++++++++OOOOOOOOXXXXXXX   XXXXXX++++++++OOOOOOOOXXXXXX..",
"..XXXXXX++++++++OOOOOOOOXXXXXXX   XXXXXX++++++++OOOOOOOOXXXXXX..",
"..XXXXXX++++++++OOOOOOOOXXXXXXX   XXXXXX++++++++OOOOOOOOXXXXXX..",
"..XXXXXX++++++++++++++++XXXXXXX   XXXXXX++++++++++++++++XXXXXX..",
"..XXXXXX++++++++++++++++XXXXXXX   XXXXXX++++++++++++++++XXXXXX..",
"..XXXXXX++++++++++++++++XXXXXXX   XXXXXX++++++++++++++++XXXXXX..",
"..XXXXXX++++++++++++++++XXXXXXX   XXXXXX++++++++++++++++XXXXXX..",
"..XXXXXXXXXXXXXXXXXXXXXXXXXXXXX   XXXXXXXXXXXXXXXXXXXXXXXXXXXX..",
"..XXXXXXXXXXXXXXXXXXXXXXXXXXXXX   XXXXXXXXXXXXXXXXXXXXXXXXXXXX..",
"..XXXXXXXXXXXXXXXXXXXXXXXXXXXXX   XXXXXXXXXXXXXXXXXXXXXXXXXXXX..",
"..XXXXXXXXXXXXXXXXXXXXXXXXXXXXX   XXXXXXXXXXXXXXXXXXXXXXXXXXXX..",
"..XXXXXX++++++++OOOOOOOOXXXXXXX   XXXXXX++++++++OOOOOOOOXXXXXX..",
"..XXXXXX++++++++OOOOOOOOXXXXXXX   XXXXXX++++++++OOOOOOOOXXXXXX..",
"..XXXXXX++++++++OOOOOOOOXXXXXXX   XXXXXX++++++++OOOOOOOOXXXXXX..",
"..XXXXXX++++++++OOOOOOOOXXXXXXX   XXXXXX++++++++OOOOOOOOXXXXXX..",
"..XXXXXX++++++++++++++++XXXXXXX   XXXXXX++++++++++++++++XXXXXX..",
"..XXXXXX++++++++++++++++XXXXXXX   XXXXXX++++++++++++++++XXXXXX..",
"..XXXXXX++++++++++++++++XXXXXXX   XXXXXX++++++++++++++++XXXXXX..",
"..XXXXXX++++++++++++++++XXXXXXX   XXXXXX++++++++++++++++XXXXXX..",
"..XXXXXXXXXXXXXXXXXXXXXXXXXXXXX   XXXXXXXXXXXXXXXXXXXXXXXXXXXX..",
"..XXXXXXXXXXXXXXXXXXXXXXXXXXXXX   XXXXXXXXXXXXXXXXXXXXXXXXXXXX..",
"..XXXXXXXXXXXXXXXXXXXXXXXXXXXXX   XXXXXXXXXXXXXXXXXXXXXXXXXXXX..",
"..XXXXXXXXXXXXXXXXXXXXXXXXXXXXX   XXXXXXXXXXXXXXXXXXXXXXXXXXXX..",
"..XXXXXXXXXXXXXXXXXXXXXXXXXXXXX   XXXXXXXXXXXXXXXXXXXXXXXXXXXX..",
"..XXXXXXXXXXXXXXXXXXXXXXXXXX XX   XX XXXXXXXXXXXXXXXXXXXXXXXXX..",
"..XXXXXXXXXXXXXXXXXXXXXXXXX   X   X   XXXXXXXXXXXXXXXXXXXXXXXX..",
"..XXXXXXXXXXXXXXXXXXXXXXXXXX  X   X  XXXXXXXXXXXXXXXXXXXXXXXXX..",
"..XXXXXXoooooooo........XXXXXXX   XXXXXX................XXXXXX..",
"..XXXXXXoooooooo........XXXXX X   X XXXX................XXXXXX..",
"..XXXXXXoooooooo........XXXXXXX   XXXXXX................XXXXXX..",
"..XXXXXXoooooooo........XXXXXXX   XXXXXX................XXXXXX..",
"..XXXXXX................XXXXXXX   XXXXXX........ooooooooXXXXXX..",
"..XXXXXX................XXXXXXX   XXXXXX........ooooooooXXXXXX..",
"..XXXXXX................XXXXXXX   XXXXXX........ooooooooXXXXXX..",
"..XXXXXX................XXXXXXX   XXXXXX........ooooooooXXXXXX..",
"..XXXXXXXXXXXXXXXXXXXXXXXXXXXXX   XXXXXXXXXXXXXXXXXXXXXXXXXXXX..",
"..XXXXXXXXXXXXXXXXXXXXXXXXXXXXX   XXXXXXXXXXXXXXXXXXXXXXXXXXXX..",
"..XXXXXXXXXXXXXXXXXXXXXXXXXXXXX   XXXXXXXXXXXXXXXXXXXXXXXXXXXX..",
"..XXXXXXXXXXXXXXXXXXXXXXXXXXXXX   XXXXXXXXXXXXXXXXXXXXXXXXXXXX..",
"..XXXXXXXXXXXXXXXXXXXXXXXXXXXXX   XXXXXXXXXXXXXXXXXXXXXXXXXXXX..",
"..XXXXXXXXXXXXXXXXXXXXXXXXXXXXX   XXXXXXXXXXXXXXXXXXXXXXXXXXXX..",
"..XXXXXXXXXXXXXXXXXXXXXXXXXXXXX   XXXXXXXXXXXXXXXXXXXXXXXXXXXX..",
"..XXXXXXXXXXXXXXXXXXXXXXXXXXXXX   XXXXXXXXXXXXXXXXXXXXXXXXXXXX..",
"..XXXXXXoooooooo........XXXXXXX   XXXXXXoooooooo........XXXXXX..",
"..XXXXXXoooooooo........XXXXXXX   XXXXXXoooooooo........XXXXXX..",
"..XXXXXXoooooooo........XXXXXXX   XXXXXXoooooooo........XXXXXX..",
"..XXXXXXoooooooo........XXXXXXX   XXXXXXoooooooo........XXXXXX..",
"..XXXXXX................XXXXXXX   XXXXXX................XXXXXX..",
"..XXXXXX................XXXXXXX   XXXXXX................XXXXXX..",
"..XXXXXX................XXXXXXX   XXXXXX................XXXXXX..",
"..XXXXXX................XXXXXXX   XXXXXX................XXXXXX..",
"..XXXXXXXXXXXXXXXXXXXXXXXXXXXXX   XXXXXXXXXXXXXXXXXXXXXXXXXXXX..",
"..XXXXXXXXXXXXXXXXXXXXXXXXXXXXX   XXXXXXXXXXXXXXXXXXXXXXXXXXXX..",
"..XXXXXXXXXXXXXXXXXXXXXXXXXXXXX   XXXXXXXXXXXXXXXXXXXXXXXXXXXX..",
"..XXXXXXXXXXXXXXXXXXXXXXXXXXXXX   XXXXXXXXXXXXXXXXXXXXXXXXXXXX..",
"..XXXXXXXXXXXXXXXXXXXXXXXXXXXXX   XXXXXXXXXXXXXXXXXXXXXXXXXXXX..",
"..XXXXXXXXXXXXXXXXXXXXXXXXXXXXX   XXXXXXXXXXXXXXXXXXXXXXXXXXXX..",
"..XXXXXXXXXXXXXXXXXXXXXXXXXXXXX   XXXXXXXXXXXXXXXXXXXXXXXXXXXX..",
"..XXXXXXXXXXXXXXXXXXXXXXXXXXXXX   XXXXXXXXXXXXXXXXXXXXXXXXXXXX.."
};
