/* XPM */
static char * floor_xpm[] = {
"8 8 2 1",
" 	c #7F7F7F",
".	c #808080",
"        ",
" .   .  ",
"        ",
"        ",
"..      ",
"        ",
"        ",
"..      "};
