/* XPM */
static char * wall_xpm[] = {
"8 8 62 1",
" 	c #997C6E",
".	c #A18273",
"+	c #957364",
"@	c #957768",
"#	c #9E7A6B",
"$	c #9D7D6D",
"%	c #9F887D",
"&	c #95796C",
"*	c #A18274",
"=	c #977463",
"-	c #A28678",
";	c #967768",
">	c #9C7969",
",	c #9D7A69",
"'	c #A18476",
")	c #997565",
"!	c #957565",
"~	c #977565",
"{	c #987666",
"]	c #997969",
"^	c #A08375",
"/	c #A28070",
"(	c #A48373",
"_	c #9A7C6D",
":	c #987868",
"<	c #9E7E6E",
"[	c #9B7D6D",
"}	c #917162",
"|	c #997B6C",
"1	c #987767",
"2	c #967767",
"3	c #9A7463",
"4	c #9A7968",
"5	c #A08274",
"6	c #977C6F",
"7	c #9A7B6C",
"8	c #937364",
"9	c #9F7A68",
"0	c #9B7968",
"a	c #9C7F71",
"b	c #9E8679",
"c	c #9D7B6B",
"d	c #9A7868",
"e	c #9C7D6E",
"f	c #A28576",
"g	c #A38373",
"h	c #A38677",
"i	c #A17F6E",
"j	c #947363",
"k	c #9A7D6F",
"l	c #9C7E6F",
"m	c #997D6E",
"n	c #917364",
"o	c #9F7E6E",
"p	c #9D7E6F",
"q	c #9C7F70",
"r	c #947263",
"s	c #9F8172",
"t	c #A3806E",
"u	c #9B7D6E",
"v	c #957668",
"w	c #A28475",
" .+@#$%&",
"$*=-;>,'",
")!~{]^/(",
"_:<[}|12",
"34567890",
"abcdefgh",
"ijklmnop",
"qrhstuvw"};
